<svg xmlns="http://www.w3.org/2000/svg" xmlns:xlink="http://www.w3.org/1999/xlink" width="500" zoomAndPan="magnify" viewBox="0 0 375 374.999991" height="500" preserveAspectRatio="xMidYMid meet" version="1.0"><defs><clipPath id="2193459eee"><path d="M 176 31.367188 L 200 31.367188 L 200 54 L 176 54 Z M 176 31.367188 " clip-rule="nonzero"/></clipPath></defs><path fill="#ffffff" d="M 202.042969 260 C 201.691406 246.964844 209.121094 238.792969 220.921875 237.839844 C 222.230469 252.328125 212.136719 259.347656 202.042969 260 Z M 172.960938 260 C 173.316406 246.964844 165.882812 238.792969 154.082031 237.839844 C 152.777344 252.328125 162.871094 259.347656 172.960938 260 Z M 153.027344 255.335938 C 155.890625 243.203125 150.515625 234.179688 139.71875 231.070312 C 135.75 244.308594 143.785156 252.777344 153.027344 255.335938 Z M 151.417969 259.449219 C 138.863281 252.730469 127.3125 255.984375 120.683594 266.914062 C 134.09375 275.238281 145.84375 268.871094 151.417969 259.449219 Z M 134.949219 247.011719 C 139.820312 236.285156 136.605469 226.910156 127.113281 221.945312 C 120.9375 233.527344 126.8125 242.902344 134.949219 247.011719 Z M 132.636719 250.523438 C 122.242188 241.953125 110.890625 242.753906 102.605469 251.675781 C 113.554688 261.953125 125.65625 258.238281 132.636719 250.523438 Z M 119.128906 235.734375 C 125.707031 226.660156 124.453125 217.335938 116.566406 210.96875 C 108.632812 220.542969 112.347656 230.371094 119.128906 235.734375 Z M 116.316406 238.542969 C 108.28125 228.617188 97.582031 227.261719 88.242188 234.03125 C 96.429688 245.609375 108.378906 244.40625 116.316406 238.542969 Z M 105.972656 222.097656 C 113.753906 214.929688 114.355469 206.058594 108.28125 198.636719 C 99.089844 206.003906 100.699219 215.832031 105.972656 222.097656 Z M 102.808594 224.15625 C 97.230469 213.476562 87.589844 210.167969 77.648438 214.679688 C 83.070312 226.960938 94.371094 228.113281 102.808594 224.15625 Z M 96.128906 206.308594 C 104.464844 200.792969 106.320312 192.570312 101.753906 184.800781 C 92.109375 190.316406 92.109375 199.691406 96.128906 206.308594 Z M 92.914062 207.8125 C 89.25 196.984375 80.761719 192.519531 70.765625 195.226562 C 74.03125 207.511719 84.425781 210.269531 92.914062 207.8125 Z M 88.894531 189.8125 C 97.683594 186.355469 101.050781 179.136719 98.335938 171.066406 C 88.34375 174.273438 86.535156 182.945312 88.894531 189.8125 Z M 85.632812 190.566406 C 84.425781 179.890625 77.445312 174.070312 67.703125 174.625 C 68.304688 186.605469 77.347656 191.167969 85.632812 190.566406 Z M 85.179688 172.519531 C 93.867188 170.664062 98.085938 164.449219 96.832031 156.527344 C 87.039062 157.980469 84.027344 165.75 85.179688 172.519531 Z M 82.066406 172.71875 C 82.570312 162.59375 76.945312 156.125 67.855469 155.171875 C 66.550781 166.355469 74.230469 172.019531 82.066406 172.71875 Z M 84.375 155.273438 C 92.714844 154.875 97.582031 149.808594 97.632812 142.238281 C 88.34375 142.089844 84.328125 148.855469 84.375 155.273438 Z M 81.414062 154.972656 C 83.472656 145.648438 79.253906 138.78125 70.96875 136.523438 C 68.054688 146.699219 74.332031 153.117188 81.414062 154.972656 Z M 86.335938 138.53125 C 94.117188 139.433594 99.394531 135.472656 100.597656 128.503906 C 92.058594 126.949219 87.289062 132.5625 86.335938 138.53125 Z M 83.671875 137.777344 C 86.988281 129.507812 84.175781 122.484375 76.84375 119.128906 C 72.574219 128.105469 77.347656 134.972656 83.671875 137.777344 Z M 90.453125 122.539062 C 97.382812 124.945312 103.007812 122.339844 105.46875 116.222656 C 97.988281 113.113281 92.511719 117.328125 90.453125 122.539062 Z M 88.191406 121.335938 C 92.863281 114.417969 91.65625 107.5 85.632812 102.9375 C 79.957031 110.304688 82.96875 117.523438 88.191406 121.335938 Z M 93.214844 112.613281 C 100.296875 111.261719 103.761719 106.296875 102.855469 99.878906 C 94.921875 100.882812 92.359375 107.148438 93.214844 112.613281 Z M 172.160156 264.609375 C 157.796875 260.347656 146.597656 266.164062 142.078125 278.847656 C 157.695312 284.5625 168.445312 275.484375 172.160156 264.609375 Z M 187.527344 255.484375 C 193.054688 255.484375 197.523438 259.945312 197.523438 265.511719 C 197.523438 271.023438 193.054688 275.484375 187.527344 275.484375 C 181.953125 275.484375 177.484375 271.023438 177.484375 265.511719 C 177.484375 259.945312 181.953125 255.484375 187.527344 255.484375 Z M 221.976562 255.335938 C 219.164062 243.203125 224.492188 234.179688 235.285156 231.070312 C 239.304688 244.308594 231.21875 252.777344 221.976562 255.335938 Z M 223.636719 259.449219 C 236.140625 252.730469 247.691406 255.984375 254.320312 266.914062 C 240.914062 275.238281 229.160156 268.871094 223.636719 259.449219 Z M 240.109375 247.011719 C 235.1875 236.285156 238.449219 226.910156 247.894531 221.945312 C 254.117188 233.527344 248.242188 242.902344 240.109375 247.011719 Z M 242.417969 250.523438 C 252.8125 241.953125 264.113281 242.753906 272.398438 251.675781 C 261.449219 261.953125 249.347656 258.238281 242.417969 250.523438 Z M 255.925781 235.734375 C 249.296875 226.660156 250.601562 217.335938 258.4375 210.96875 C 266.371094 220.542969 262.707031 230.371094 255.925781 235.734375 Z M 258.6875 238.542969 C 266.726562 228.617188 277.421875 227.261719 286.8125 234.03125 C 278.574219 245.609375 266.625 244.40625 258.6875 238.542969 Z M 269.085938 222.097656 C 261.25 214.929688 260.648438 206.058594 266.726562 198.636719 C 275.914062 206.003906 274.355469 215.832031 269.085938 222.097656 Z M 272.195312 224.15625 C 277.773438 213.476562 287.414062 210.167969 297.359375 214.679688 C 291.9375 226.960938 280.636719 228.113281 272.195312 224.15625 Z M 278.875 206.308594 C 270.539062 200.792969 268.679688 192.570312 273.253906 184.800781 C 282.894531 190.316406 282.894531 199.691406 278.875 206.308594 Z M 282.140625 207.8125 C 285.757812 196.984375 294.292969 192.519531 304.238281 195.226562 C 300.972656 207.511719 290.578125 210.269531 282.140625 207.8125 Z M 286.109375 189.8125 C 277.320312 186.355469 274.007812 179.136719 276.667969 171.066406 C 286.660156 174.273438 288.519531 182.945312 286.109375 189.8125 Z M 289.375 190.566406 C 290.578125 179.890625 297.609375 174.070312 307.300781 174.625 C 306.699219 186.605469 297.660156 191.167969 289.375 190.566406 Z M 289.828125 172.519531 C 281.136719 170.664062 276.917969 164.449219 278.175781 156.527344 C 287.96875 157.980469 290.980469 165.75 289.828125 172.519531 Z M 292.988281 172.71875 C 292.488281 162.59375 298.0625 156.125 307.203125 155.171875 C 308.457031 166.355469 300.773438 172.019531 292.988281 172.71875 Z M 290.628906 155.273438 C 282.292969 154.875 277.421875 149.808594 277.371094 142.238281 C 286.660156 142.089844 290.679688 148.855469 290.628906 155.273438 Z M 293.59375 154.972656 C 291.53125 145.648438 295.75 138.78125 304.039062 136.523438 C 306.949219 146.699219 300.722656 153.117188 293.59375 154.972656 Z M 288.671875 138.53125 C 280.886719 139.433594 275.613281 135.472656 274.410156 128.503906 C 282.996094 126.949219 287.71875 132.5625 288.671875 138.53125 Z M 291.332031 137.777344 C 288.070312 129.507812 290.878906 122.484375 298.210938 119.128906 C 302.480469 128.105469 297.660156 134.972656 291.332031 137.777344 Z M 284.554688 122.539062 C 277.621094 124.945312 271.996094 122.339844 269.535156 116.222656 C 277.019531 113.113281 282.492188 117.328125 284.554688 122.539062 Z M 286.863281 121.335938 C 282.191406 114.417969 283.398438 107.5 289.421875 102.9375 C 295.046875 110.304688 292.035156 117.523438 286.863281 121.335938 Z M 281.789062 112.613281 C 274.757812 111.261719 271.242188 106.296875 272.148438 99.878906 C 280.082031 100.882812 282.644531 107.148438 281.789062 112.613281 Z M 202.84375 264.609375 C 217.207031 260.347656 228.40625 266.164062 232.925781 278.847656 C 217.308594 284.5625 206.5625 275.484375 202.84375 264.609375 Z M 202.84375 264.609375 " fill-opacity="1" fill-rule="nonzero"/><path fill="#ffffff" d="M 157.78125 46.183594 L 160.945312 53.894531 L 169.277344 54.523438 L 162.894531 59.917969 L 164.875 68.023438 L 157.78125 63.632812 L 150.660156 68.023438 L 152.664062 59.917969 L 146.257812 54.523438 L 154.617188 53.894531 Z M 157.78125 46.183594 " fill-opacity="1" fill-rule="evenodd"/><g clip-path="url(#2193459eee)"><path fill="#ffffff" d="M 187.53125 31.601562 L 190.699219 39.308594 L 199.027344 39.941406 L 192.648438 45.339844 L 194.625 53.445312 L 187.53125 49.050781 L 180.414062 53.445312 L 182.421875 45.339844 L 176.011719 39.941406 L 184.371094 39.308594 Z M 187.53125 31.601562 " fill-opacity="1" fill-rule="evenodd"/></g><path fill="#ffffff" d="M 217.285156 46.183594 L 220.449219 53.894531 L 228.78125 54.523438 L 222.402344 59.917969 L 224.378906 68.023438 L 217.285156 63.632812 L 210.167969 68.023438 L 212.171875 59.917969 L 205.765625 54.523438 L 214.125 53.894531 Z M 217.285156 46.183594 " fill-opacity="1" fill-rule="evenodd"/><path fill="#ffffff" d="M 289.28125 296.945312 L 289.28125 297.046875 L 281.195312 296.191406 C 279.335938 295.992188 277.429688 295.742188 275.574219 295.539062 L 275.574219 295.691406 L 270.5 294.839844 L 270.148438 294.789062 L 270.097656 294.789062 C 265.828125 294.1875 261.558594 293.4375 257.390625 292.484375 L 256.1875 292.230469 L 256.1875 292.183594 C 252.921875 291.429688 249.757812 290.574219 246.695312 289.523438 C 239.613281 287.167969 230.070312 281.804688 226.203125 275.085938 C 188.742188 210.316406 151.277344 145.550781 113.8125 80.78125 C 112.859375 79.125 111.902344 77.472656 110.949219 75.816406 C 108.1875 71.003906 109.84375 64.789062 114.667969 61.980469 C 115.46875 61.527344 116.277344 61.078125 117.078125 60.625 C 121.898438 57.820312 128.125 59.472656 130.886719 64.335938 C 131.890625 66.042969 132.894531 67.796875 133.902344 69.5 C 167.546875 127.699219 201.246094 185.90625 234.894531 244.15625 C 237.804688 249.167969 242.425781 255.886719 248.449219 257.144531 C 262.613281 260.097656 276.976562 261.25 291.390625 260.449219 C 301.988281 259.847656 317.054688 258.996094 320.515625 271.976562 C 322.074219 277.894531 323.933594 285.964844 320.066406 291.328125 C 318.960938 292.835938 317.453125 294.039062 315.695312 294.9375 L 307.8125 297.144531 C 301.433594 297.996094 294.253906 297.394531 289.28125 296.945312 Z M 289.28125 296.945312 " fill-opacity="1" fill-rule="evenodd"/><path fill="#ffffff" d="M 229.066406 247.515625 C 214.050781 221.546875 150.472656 111.660156 128.023438 72.859375 C 126.921875 70.953125 125.914062 69.25 125.0625 67.695312 C 124.109375 66.09375 122.050781 65.539062 120.441406 66.441406 C 119.738281 66.84375 118.734375 67.445312 118.03125 67.84375 C 116.425781 68.75 115.871094 70.855469 116.828125 72.457031 C 117.679688 73.960938 118.632812 75.566406 119.6875 77.371094 C 144.097656 119.628906 214.855469 241.953125 232.082031 271.726562 C 233.636719 274.433594 239.363281 280 248.851562 283.15625 C 262.816406 287.820312 282.550781 289.574219 286.96875 289.976562 C 287.671875 290.027344 288.378906 290.078125 289.082031 290.125 C 294.957031 290.675781 311.125 292.183594 314.589844 287.371094 C 316.902344 284.210938 314.691406 276.289062 313.988281 273.734375 C 312.132812 266.761719 303.945312 266.515625 291.792969 267.164062 C 276.625 268.070312 261.761719 266.816406 247.097656 263.757812 C 237.65625 261.800781 231.679688 252.027344 229.066406 247.515625 Z M 229.066406 247.515625 " fill-opacity="1" fill-rule="evenodd"/><path fill="#ffffff" d="M 227.308594 248.519531 C 193.613281 190.316406 159.964844 132.113281 126.269531 73.863281 C 125.3125 72.15625 124.308594 70.453125 123.304688 68.699219 C 122.902344 68.046875 122.097656 67.84375 121.445312 68.195312 C 120.644531 68.648438 119.839844 69.148438 119.035156 69.601562 C 118.433594 69.953125 118.183594 70.804688 118.582031 71.457031 L 118.984375 72.15625 C 120.390625 71.808594 121.949219 72.40625 122.753906 73.710938 C 123.65625 75.265625 124.609375 77.019531 125.714844 78.925781 C 148.164062 117.726562 211.742188 227.613281 226.757812 253.53125 C 229.367188 258.09375 235.34375 267.816406 244.785156 269.824219 C 259.449219 272.832031 274.316406 274.085938 289.480469 273.230469 C 301.632812 272.53125 309.820312 272.78125 311.679688 279.75 C 312.03125 281.003906 312.683594 283.460938 313.035156 286.015625 C 314.492188 283.558594 312.683594 276.742188 312.03125 274.234375 C 311.78125 273.285156 311.328125 272.378906 310.625 271.675781 C 307.160156 268.070312 296.460938 268.96875 291.890625 269.222656 C 276.726562 270.074219 261.558594 268.820312 246.695312 265.761719 C 237.703125 263.855469 231.628906 255.984375 227.308594 248.519531 Z M 227.308594 248.519531 " fill-opacity="1" fill-rule="evenodd"/><path fill="#ffffff" d="M 262.113281 286.515625 C 263.917969 286.917969 265.679688 287.21875 267.386719 287.519531 L 264.023438 266.464844 C 262.265625 266.265625 260.503906 266.066406 258.800781 265.816406 Z M 275.972656 288.769531 C 277.882812 289.023438 279.636719 289.222656 281.195312 289.375 L 277.683594 267.363281 C 275.921875 267.363281 274.214844 267.265625 272.507812 267.164062 Z M 275.972656 288.769531 " fill-opacity="1" fill-rule="evenodd"/><path fill="#ffffff" d="M 118.835938 292.183594 L 118.835938 292.230469 L 117.679688 292.484375 C 113.460938 293.4375 109.191406 294.1875 104.925781 294.789062 L 104.519531 294.839844 L 99.449219 295.691406 L 99.5 295.539062 C 97.542969 295.789062 95.632812 295.992188 93.777344 296.191406 L 85.738281 297.046875 L 85.738281 296.945312 C 80.769531 297.394531 73.585938 297.996094 67.257812 297.144531 L 59.324219 294.9375 C 57.566406 294.039062 56.058594 292.835938 54.957031 291.328125 C 51.140625 285.964844 52.945312 277.894531 54.503906 271.976562 C 58.019531 258.996094 73.035156 259.847656 83.628906 260.449219 C 98.042969 261.25 112.40625 260.097656 126.570312 257.144531 C 132.597656 255.886719 137.214844 249.167969 140.128906 244.15625 C 173.824219 185.90625 207.472656 127.699219 241.121094 69.5 C 242.125 67.796875 243.128906 66.042969 244.132812 64.335938 C 246.945312 59.472656 253.121094 57.820312 257.992188 60.625 C 258.800781 61.078125 259.550781 61.527344 260.355469 61.980469 C 265.226562 64.789062 266.882812 71.003906 264.070312 75.816406 C 263.117188 77.472656 262.160156 79.125 261.207031 80.78125 C 223.742188 145.550781 186.28125 210.316406 148.816406 275.085938 C 144.949219 281.804688 135.40625 287.167969 128.328125 289.523438 C 125.3125 290.574219 122.097656 291.429688 118.835938 292.183594 Z M 118.835938 292.183594 " fill-opacity="1" fill-rule="evenodd"/><path fill="#ffffff" d="M 146.003906 247.515625 C 161.019531 221.546875 224.546875 111.660156 246.996094 72.859375 C 248.101562 70.953125 249.105469 69.25 250.007812 67.695312 C 250.914062 66.09375 252.972656 65.539062 254.578125 66.441406 C 255.28125 66.84375 256.335938 67.445312 256.988281 67.84375 C 258.597656 68.75 259.148438 70.855469 258.246094 72.457031 C 257.339844 73.960938 256.386719 75.566406 255.382812 77.371094 C 230.925781 119.628906 160.164062 241.953125 142.992188 271.726562 C 141.382812 274.433594 135.65625 280 126.21875 283.15625 C 112.257812 287.820312 92.46875 289.574219 88.050781 289.976562 C 87.347656 290.027344 86.644531 290.078125 85.988281 290.125 C 80.066406 290.675781 63.894531 292.183594 60.480469 287.371094 C 58.167969 284.210938 60.378906 276.289062 61.03125 273.734375 C 62.941406 266.761719 71.074219 266.515625 83.230469 267.164062 C 98.394531 268.070312 113.308594 266.816406 127.925781 263.757812 C 137.367188 261.800781 143.34375 252.027344 146.003906 247.515625 Z M 146.003906 247.515625 " fill-opacity="1" fill-rule="evenodd"/><path fill="#ffffff" d="M 147.761719 248.519531 C 181.410156 190.316406 215.054688 132.113281 248.753906 73.863281 C 249.757812 72.15625 250.761719 70.453125 251.71875 68.699219 C 252.117188 68.046875 252.921875 67.84375 253.574219 68.195312 C 254.378906 68.648438 255.179688 69.148438 255.984375 69.601562 C 256.640625 69.953125 256.839844 70.804688 256.488281 71.457031 L 256.035156 72.15625 C 254.628906 71.808594 253.070312 72.40625 252.269531 73.710938 C 251.414062 75.265625 250.410156 77.019531 249.304688 78.925781 C 226.859375 117.726562 163.328125 227.613281 148.316406 253.53125 C 145.652344 258.09375 139.675781 267.816406 130.234375 269.824219 C 115.621094 272.832031 100.707031 274.085938 85.539062 273.230469 C 73.386719 272.53125 65.199219 272.78125 63.339844 279.75 C 63.039062 281.003906 62.335938 283.460938 61.988281 286.015625 C 60.582031 283.558594 62.335938 276.742188 62.988281 274.234375 C 63.242188 273.285156 63.691406 272.378906 64.394531 271.675781 C 67.863281 268.070312 78.558594 268.96875 83.128906 269.222656 C 98.347656 270.074219 113.460938 268.820312 128.328125 265.761719 C 137.316406 263.855469 143.394531 255.984375 147.761719 248.519531 Z M 147.761719 248.519531 " fill-opacity="1" fill-rule="evenodd"/><path fill="#ffffff" d="M 112.910156 286.515625 C 111.152344 286.917969 109.34375 287.21875 107.636719 287.519531 L 111.050781 266.464844 C 112.757812 266.265625 114.515625 266.066406 116.277344 265.816406 Z M 99.046875 288.769531 C 97.140625 289.023438 95.382812 289.222656 93.824219 289.375 L 97.390625 267.363281 C 99.097656 267.363281 100.804688 267.265625 102.5625 267.164062 Z M 99.046875 288.769531 " fill-opacity="1" fill-rule="evenodd"/><path fill="#ffffff" d="M 144.921875 307.324219 L 144.921875 327.382812 C 146.011719 334.523438 158.390625 338.257812 163.84375 339.582031 C 179.414062 343.390625 202.148438 343.234375 217.488281 337.714844 C 221.382812 336.316406 228.777344 332.976562 229.949219 328.15625 L 230.105469 327.300781 L 230.105469 307.324219 C 230.105469 307.089844 230.183594 306.78125 230.183594 306.550781 C 230.183594 302.117188 225.355469 298.152344 217.488281 295.28125 C 200.90625 289.292969 174.121094 289.292969 157.535156 295.28125 C 149.515625 298.152344 144.222656 302.425781 144.921875 307.324219 Z M 160.417969 295.355469 C 152.632812 297.996094 147.726562 301.808594 147.726562 305.925781 C 147.726562 314.011719 165.867188 320.539062 188.214844 320.539062 C 204.019531 320.539062 217.722656 317.273438 224.417969 312.535156 C 217.257812 315.328125 206.667969 317.035156 194.984375 316.886719 C 173.421875 316.496094 155.902344 309.890625 155.902344 302.117188 C 155.902344 299.476562 157.925781 297.0625 161.351562 295.042969 C 161.039062 295.121094 160.882812 295.199219 160.417969 295.355469 Z M 160.417969 295.355469 " fill-opacity="1" fill-rule="evenodd"/></svg>